<?xml version="1.0" standalone="no"?>
<!DOCTYPE svg PUBLIC "-//W3C//DTD SVG 20010904//EN"
 "http://www.w3.org/TR/2001/REC-SVG-20010904/DTD/svg10.dtd">
<svg version="1.0" xmlns="http://www.w3.org/2000/svg"
 width="250.000000pt" height="250.000000pt" viewBox="0 0 250.000000 250.000000"
 preserveAspectRatio="xMidYMid meet">
<metadata>
Created by potrace 1.16, written by Peter Selinger 2001-2019
</metadata>
<g transform="translate(0.000000,250.000000) scale(0.100000,-0.100000)"
fill="#000000" stroke="none">
<path d="M1363 2108 c-67 -69 -109 -118 -106 -127 4 -9 1 -11 -8 -6 -8 5 -3
-5 11 -20 37 -43 144 -145 147 -141 2 1 -23 27 -54 57 -32 30 -67 65 -77 79
-11 14 58 -51 153 -145 94 -93 174 -172 177 -175 2 -2 56 47 119 110 90 89
114 119 109 135 -5 19 -4 19 7 1 10 -17 -2 -33 -113 -142 -68 -68 -122 -124
-119 -124 4 0 62 56 130 124 106 106 122 126 113 142 -6 11 -86 93 -178 184
-91 91 -164 160 -160 154 3 -7 -4 -11 -19 -11 -14 0 -22 3 -19 8 13 22 -8 2
-113 -103z"/>
<path d="M1077 1822 c-64 -64 -117 -124 -117 -132 0 -8 192 -206 428 -440
l427 -425 -422 425 c-233 234 -423 432 -423 440 0 17 219 240 235 240 20 0
878 -867 872 -881 -4 -11 -6 -11 -6 1 -1 17 -850 870 -866 870 -16 0 -225
-214 -225 -230 0 -22 841 -860 863 -860 10 0 20 7 23 15 4 8 11 15 17 15 19 0
-26 -40 -47 -41 -19 -1 -19 -2 -2 -6 14 -4 50 26 137 113 66 65 119 123 119
129 0 13 -872 885 -885 885 -6 0 -63 -53 -128 -118z"/>
<path d="M793 1538 c-93 -95 -110 -116 -103 -133 14 -33 10 -42 -5 -15 -8 14
-14 19 -15 11 0 -20 191 -211 212 -211 10 0 18 -5 18 -11 0 -5 -4 -7 -10 -4
-21 13 -8 -3 51 -60 34 -33 59 -54 55 -47 -4 6 -2 12 3 12 6 0 11 -4 11 -10 0
-5 8 -10 18 -10 22 0 228 207 235 237 4 17 -27 53 -162 187 -92 91 -174 166
-182 166 -8 0 -64 -51 -126 -112z"/>
<path d="M497 1242 c-64 -64 -117 -122 -117 -127 0 -10 870 -885 880 -885 3 0
-191 197 -432 437 -241 241 -438 442 -438 448 0 16 224 235 240 235 8 0 206
-190 440 -422 l425 -423 -425 428 c-234 235 -432 427 -440 427 -8 0 -68 -53
-133 -118z"/>
<path d="M507 1232 c-59 -59 -107 -112 -107 -117 0 -14 851 -861 871 -868 22
-7 239 210 238 238 -1 16 -2 15 -9 -5 -7 -21 -8 -22 -9 -5 -1 24 -838 865
-861 865 -9 0 -64 -48 -123 -108z"/>
<path d="M1300 1013 c-52 -53 -85 -89 -72 -79 12 11 22 14 22 8 0 -6 -8 -17
-18 -24 -11 -7 -21 -25 -24 -40 -4 -23 13 -45 153 -184 136 -136 162 -158 189
-158 26 0 48 17 134 103 85 85 102 107 98 127 -2 13 -8 24 -13 24 -5 0 -9 5
-9 11 0 5 6 7 13 3 6 -4 -58 64 -143 150 -147 148 -169 169 -155 146 3 -5 1
-10 -4 -10 -6 0 -11 5 -11 10 0 6 -11 10 -25 10 -14 0 -25 -4 -25 -10 0 -5 -5
-10 -11 -10 -5 0 -7 5 -4 10 14 23 -5 5 -95 -87z"/>
</g>
</svg>
